<?xml version="1.0" encoding="UTF-8" standalone="no"?><svg xmlns="http://www.w3.org/2000/svg" xmlns:xlink="http://www.w3.org/1999/xlink" contentScriptType="text/ecmascript" fill="#2c3b28" width="2030.7" zoomAndPan="magnify" contentStyleType="text/css" viewBox="0.0 0.0 2030.7 413.5" height="413.5" preserveAspectRatio="xMidYMid meet" version="1"><g><g fill="#e8f9f5" id="change1_1"><path fill="inherit" d="M1978.3,310.2l-2.4,0.1c-80,3.5-142.3,39.9-151.6,88.5l-0.4,2.1H206.8l-0.4-2.1 c-9.2-48.6-71.6-84.9-151.6-88.5l-2.4-0.1V249h-7.6v68.6c84.4,0.8,152.8,41,155.1,90.8h1631c2.3-49.8,70.7-90,155.1-90.8V249h-7.6 V310.2z"/><path fill="inherit" d="M1830.9,5.1h-1631c-2.3,49.8-70.7,90-155.1,90.8v68.6h7.6v-61.2l2.4-0.1c80-3.5,142.3-39.9,151.6-88.5 l0.4-2.1h1617.1l0.4,2.1c9.2,48.6,71.6,84.9,151.6,88.5l2.4,0.1v61.2h7.6V95.9C1901.6,95.1,1833.1,54.9,1830.9,5.1z"/><path fill="inherit" d="M84.5,249h-27v56.3c80.1,4.2,142.6,41.1,153.5,90.4h1608.8c10.9-49.4,73.4-86.2,153.5-90.4V249h-27v-42.2 v-42.2h27v-56.3c-80.1-4.2-142.6-41.1-153.5-90.4H211c-10.9,49.3-73.4,86.2-153.5,90.4v56.3h27v42.2V249z"/></g><g fill="#2c3b28" id="change2_1"><path fill="inherit" d="M1975.9,103.3c-80-3.5-142.3-39.9-151.6-88.5l-0.4-2.1H206.8l-0.4,2.1c-9.2,48.6-71.6,84.9-151.6,88.5 l-2.4,0.1v61.2H55h2.5v-56.3C137.6,104,200.1,67.2,211,17.8h1608.8c10.9,49.3,73.4,86.2,153.5,90.4v56.3h2.5h2.5v-61.2 L1975.9,103.3z"/><path fill="inherit" d="M1973.2,249v56.3c-80.1,4.2-142.6,41.1-153.5,90.4H211c-10.9-49.4-73.4-86.2-153.5-90.4V249H55h-2.5v61.2 l2.4,0.1c80,3.5,142.3,39.9,151.6,88.5l0.4,2.1h1617.1l0.4-2.1c9.2-48.6,71.6-84.9,151.6-88.5l2.4-0.1V249h-2.5H1973.2z"/></g><g fill="#e8f9f5" id="change3_1"><path fill="inherit" d="M5.1 169.6L5.1 201.7 37.1 169.6z"/><path fill="inherit" d="M5.1 243.9L37.1 243.9 5.1 211.9z"/><path fill="inherit" d="M55 169.6L52.4 169.6 47.3 169.6 52.4 174.7 55 177.3 57.5 179.8 79.4 201.7 79.4 169.6 57.5 169.6z"/><path fill="inherit" d="M55 236.3L52.4 238.8 47.3 243.9 52.4 243.9 55 243.9 57.5 243.9 79.4 243.9 79.4 211.9 57.5 233.7z"/><path fill="inherit" d="M55 229.1L57.5 226.5 77.3 206.8 57.5 187 55 184.5 52.4 181.9 44.8 174.3 42.2 171.7 39.7 174.3 7.2 206.8 39.7 239.3 42.2 241.8 44.8 239.3 52.4 231.6z"/><path fill="inherit" d="M1993.6 169.6L2025.6 201.7 2025.6 169.6z"/><path fill="inherit" d="M2025.6 243.9L2025.6 211.9 1993.6 243.9z"/><path fill="inherit" d="M1975.8 236.3L1973.2 233.7 1951.3 211.9 1951.3 243.9 1973.2 243.9 1975.8 243.9 1978.3 243.9 1983.4 243.9 1978.3 238.8z"/><path fill="inherit" d="M1975.8 177.3L1978.3 174.7 1983.4 169.6 1978.3 169.6 1975.8 169.6 1973.2 169.6 1951.3 169.6 1951.3 201.7 1973.2 179.8z"/><path fill="inherit" d="M1991 174.3L1988.5 171.7 1985.9 174.3 1978.3 181.9 1975.8 184.5 1973.2 187 1953.5 206.8 1973.2 226.5 1975.8 229.1 1978.3 231.6 1985.9 239.3 1988.5 241.8 1991 239.3 2023.5 206.8z"/></g><g id="change4_1"><path fill="inherit" d="M1991,164.5V90.8h-2.5c-84.1,0-152.6-39.6-152.6-88.3V0H194.8v2.5c0,48.7-68.5,88.3-152.6,88.3h-2.5v73.7H0v42.2V249h39.7 v73.7h2.5c84.1,0,152.6,39.6,152.6,88.3v2.5h1641.1V411c0-48.7,68.5-88.3,152.6-88.3h2.5V249h39.7v-42.2v-42.2H1991z M2025.6,243.9 h-32.1l32.1-32.1V243.9z M1985.9,317.6c-84.4,0.8-152.8,41-155.1,90.8h-1631c-2.3-49.8-70.7-90-155.1-90.8V249h7.6H55h2.5h27v-42.2 v-42.2h-27H55h-2.5h-7.6V95.9c84.4-0.8,152.8-41,155.1-90.8h1631c2.3,49.8,70.7,90,155.1,90.8v68.6h-7.6h-2.5h-2.5h-27v42.2V249h27 h2.5h2.5h7.6V317.6z M5.1,243.9v-32.1l32.1,32.1H5.1z M5.1,169.6h32.1L5.1,201.7V169.6z M79.4,201.7l-21.9-21.9l-2.5-2.5l-2.5-2.5 l-5.1-5.1h5.1H55h2.5h21.9V201.7z M44.8,174.3l7.6,7.6l2.5,2.5l2.5,2.5l19.8,19.8l-19.8,19.8l-2.5,2.5l-2.5,2.5l-7.6,7.6l-2.5,2.5 l-2.5-2.5L7.2,206.8l32.5-32.5l2.5-2.5L44.8,174.3z M52.4,238.8l2.5-2.5l2.5-2.5l21.9-21.9v32.1H57.5H55h-2.5h-5.1L52.4,238.8z M1978.3,174.7l-2.5,2.5l-2.5,2.5l-21.9,21.9v-32.1h21.9h2.5h2.5h5.1L1978.3,174.7z M1978.3,243.9h-2.5h-2.5h-21.9v-32.1l21.9,21.9 l2.5,2.5l2.5,2.5l5.1,5.1H1978.3z M1985.9,239.3l-7.6-7.6l-2.5-2.5l-2.5-2.5l-19.8-19.8l19.8-19.8l2.5-2.5l2.5-2.5l7.6-7.6l2.5-2.5 l2.5,2.5l32.5,32.5l-32.5,32.5l-2.5,2.5L1985.9,239.3z M2025.6,201.7l-32.1-32.1h32.1V201.7z"/></g></g></svg>